<?xml version="1.0" standalone="no"?>
<!DOCTYPE svg PUBLIC "-//W3C//DTD SVG 20010904//EN"
 "http://www.w3.org/TR/2001/REC-SVG-20010904/DTD/svg10.dtd">
<svg version="1.0" xmlns="http://www.w3.org/2000/svg"
 width="1280.000000pt" height="1280.000000pt" viewBox="0 0 1280.000000 1280.000000"
 preserveAspectRatio="xMidYMid meet">
<metadata>
Created by potrace 1.11, written by Peter Selinger 2001-2013
</metadata>
<g transform="translate(0.000000,1280.000000) scale(0.100000,-0.100000)"
fill="#000000" stroke="none">
<path d="M1108 12785 c-85 -14 -159 -39 -200 -67 -14 -10 -29 -18 -32 -18 -15
0 -75 -50 -138 -115 -76 -77 -145 -203 -176 -315 -16 -61 -17 -319 -17 -4575
0 -2481 3 -4528 7 -4550 14 -80 38 -159 81 -270 11 -28 102 -195 130 -239 59
-94 195 -240 292 -315 33 -25 62 -48 65 -51 6 -7 93 -53 145 -77 22 -11 78
-38 125 -60 47 -23 112 -53 145 -68 69 -32 191 -89 350 -166 61 -29 113 -53
116 -53 3 -1 21 -9 40 -18 19 -9 88 -42 154 -73 66 -30 154 -72 195 -92 41
-20 80 -37 85 -39 6 -1 76 -34 156 -73 80 -39 149 -71 152 -71 4 0 81 -36 171
-80 91 -44 167 -80 170 -80 2 0 60 -26 128 -59 264 -125 318 -151 322 -151 3
0 79 -36 170 -80 91 -44 167 -80 170 -80 5 0 230 -106 392 -185 39 -19 73 -35
76 -35 3 0 68 -30 144 -66 192 -91 265 -126 364 -172 47 -22 126 -59 175 -82
50 -23 158 -74 240 -112 83 -38 169 -80 193 -94 23 -14 42 -22 42 -19 0 3 26
-7 58 -23 51 -27 166 -81 217 -102 87 -37 180 -54 285 -54 98 1 139 7 229 38
43 15 79 22 85 17 11 -8 107 -38 156 -48 37 -8 199 -7 245 1 41 6 124 30 160
46 51 21 166 75 217 102 32 16 58 26 58 23 0 -3 19 5 42 19 24 14 111 56 193
94 83 38 191 89 240 112 50 23 128 60 175 82 99 46 172 81 364 172 76 36 141
66 144 66 3 0 37 16 76 35 162 79 387 185 392 185 3 0 79 36 170 80 91 44 167
80 170 80 4 0 58 26 322 151 68 33 126 59 128 59 3 0 79 36 170 80 90 44 167
80 171 80 3 0 72 32 152 71 80 39 151 72 156 73 6 2 44 19 85 39 41 20 129 62
195 92 66 31 135 64 154 73 19 9 37 17 40 18 3 0 56 24 116 53 159 77 281 134
350 166 33 15 98 45 145 68 47 22 103 49 125 60 61 28 138 71 155 84 8 7 33
26 55 43 98 77 236 226 292 316 28 43 123 217 123 224 0 3 11 34 25 69 29 69
53 154 63 221 9 58 9 9010 0 9070 -10 68 -55 185 -99 256 -47 78 -140 172
-205 210 -27 15 -56 33 -64 39 -26 21 -131 52 -217 64 -91 13 -202 3 -303 -27
-30 -9 -57 -16 -60 -17 -3 0 -59 -27 -124 -58 -65 -31 -121 -57 -123 -57 -3 0
-66 -30 -141 -66 -76 -36 -159 -75 -186 -85 -27 -11 -67 -31 -90 -44 -23 -13
-45 -25 -51 -25 -10 -2 -68 -28 -250 -116 -49 -23 -126 -59 -170 -79 -44 -21
-89 -42 -99 -47 -77 -40 -416 -195 -416 -190 0 4 -4 2 -8 -3 -4 -6 -45 -28
-92 -49 -47 -21 -121 -57 -165 -79 -44 -22 -81 -40 -82 -39 -3 1 -108 -47
-298 -138 -66 -32 -151 -72 -190 -90 -108 -49 -340 -158 -440 -205 -49 -24
-126 -59 -170 -80 -44 -20 -116 -54 -160 -75 -44 -21 -120 -57 -170 -80 -49
-23 -112 -52 -140 -65 -290 -139 -366 -175 -372 -175 -4 0 -72 -32 -152 -71
-80 -39 -150 -72 -156 -73 -5 -1 -50 -21 -100 -46 -49 -24 -124 -60 -165 -79
-88 -40 -87 -40 -165 -85 -33 -19 -96 -66 -140 -104 l-80 -68 -85 71 c-72 62
-214 155 -230 152 -3 0 -36 15 -75 34 -172 86 -251 124 -260 125 -5 1 -71 31
-145 67 -74 36 -161 77 -192 91 l-58 25 0 414 c0 322 -3 422 -13 446 -16 37
-56 66 -147 105 -36 16 -75 35 -87 42 -12 8 -27 14 -32 14 -5 0 -48 18 -95 40
-47 22 -87 40 -90 40 -3 0 -38 15 -78 34 -40 19 -152 69 -248 111 -96 42 -181
82 -187 87 -7 6 -13 7 -13 4 0 -4 -21 4 -47 18 -27 13 -154 70 -283 127 -129
56 -275 121 -325 145 -107 50 -135 57 -182 48 -36 -7 -107 -66 -113 -95 -1 -8
-4 -159 -7 -336 -2 -178 -7 -323 -11 -323 -5 0 -12 4 -18 8 -5 5 -27 16 -49
24 -22 9 -102 46 -178 82 -75 36 -139 66 -142 66 -2 0 -74 34 -160 75 -85 41
-157 75 -160 74 -3 0 -31 13 -63 29 -131 66 -401 193 -405 190 -1 -2 -23 9
-48 24 -25 15 -68 36 -95 47 -27 10 -110 49 -186 85 -75 36 -138 66 -141 66
-2 0 -58 26 -123 57 -65 31 -121 58 -124 58 -3 1 -30 8 -60 17 -63 19 -185 38
-227 37 -15 -1 -63 -7 -105 -14z m2735 -9717 c67 -31 252 -113 410 -183 158
-70 286 -129 284 -131 -2 -3 -189 78 -415 178 l-412 183 3 4560 2 4560 2
-4556 3 -4556 123 -55z m554 8856 l653 -289 0 -4557 0 -4557 -142 63 c-257
113 -358 159 -355 163 2 1 110 -44 240 -102 131 -58 239 -105 242 -105 3 0 4
2045 3 4545 l-3 4546 -640 284 c-352 156 -647 289 -655 295 -21 15 -60 32 657
-286z m-1702 -566 l710 -333 3 -4031 2 -4031 38 -41 c33 -37 117 -76 876 -412
821 -365 840 -372 892 -368 58 5 93 28 120 80 12 23 14 601 14 3958 0 2232 4
3930 9 3928 5 -1 104 -48 221 -103 237 -111 280 -142 353 -253 58 -87 85 -150
97 -226 13 -82 14 -8736 0 -8736 -9 0 -4325 2022 -4450 2085 -111 56 -223 193
-269 332 l-21 62 0 4374 0 4375 348 -164 c191 -90 667 -313 1057 -496z m8803
-3735 l-3 -4388 -47 -96 c-35 -71 -65 -115 -115 -168 l-68 -72 -545 -255
c-300 -141 -864 -406 -1255 -589 -390 -183 -1115 -523 -1610 -755 -495 -233
-937 -440 -982 -461 l-83 -38 -2 4407 -3 4407 29 60 c35 74 103 163 153 203
32 25 4502 2131 4526 2132 4 0 6 -1974 5 -4387z"/>
</g>
</svg>
